<?xml version="1.0" encoding="UTF-8" standalone="no"?><!DOCTYPE svg PUBLIC "-//W3C//DTD SVG 1.1//EN" "http://www.w3.org/Graphics/SVG/1.1/DTD/svg11.dtd"><svg width="100%" height="100%" viewBox="0 0 1024 1024" version="1.1" xmlns="http://www.w3.org/2000/svg" xmlns:xlink="http://www.w3.org/1999/xlink" xml:space="preserve" xmlns:serif="http://www.serif.com/" style="fill-rule:evenodd;clip-rule:evenodd;stroke-linejoin:round;stroke-miterlimit:2;"><path d="M0,954.466l0,-46.1c0.09,-0.921 0.191,-1.839 0.302,-2.753c1.019,-8.406 4.733,-16.196 5.325,-24.791c0.792,-11.501 -1.387,-23.553 0.624,-34.933c1.285,-7.275 3.426,-14.595 6.251,-21.41c1.836,-4.429 4.65,-8.728 5.382,-13.523c2.355,-15.443 0.052,-31.77 1.558,-47.328c4.089,-42.255 16.561,-85.658 36.967,-122.828c9.646,-17.57 20.955,-34.618 37.214,-46.748c12.316,-9.188 27.469,-12.628 41.694,-17.483c-4.39,-2.277 -10.087,-6.086 -11.323,-11.268c-0.723,-3.036 1.014,-6.136 1.729,-9.015l4.247,-16.903c7.053,-28.135 8.56,-57.664 27.511,-81.117c9.37,-11.596 24.557,-18.423 38.687,-21.962c28.189,-7.058 58.088,-7.031 86.768,-4.164c14.994,1.499 30.568,2.725 43.948,10.333c-8.398,-15.779 -15.372,-31.638 -17.704,-49.582c-0.895,-6.889 1.913,-14.905 0.351,-21.411c-1.312,-5.467 -5.342,-10.493 -7.365,-15.776c-4.595,-12.001 -8.344,-24.722 -11.46,-37.186c-6.431,-25.722 -5.516,-52.551 -5.516,-78.88c-3.781,3.24 -5.507,7.797 -9.015,11.268c0.009,-13.11 4.875,-25.018 9.374,-37.186c9.508,-25.712 19.976,-50.19 37.954,-70.993l-10.142,4.508c1.23,-11.316 12.406,-19.885 20.284,-27.142c14.043,-12.934 28.603,-25.149 45.074,-34.823c9.262,-5.439 20.86,-8.412 29.299,-14.662c-7.505,-3.156 -12.896,-8.573 -21.411,-9.015c2.565,-3.644 7.02,-4.031 11.269,-4.794c8.619,-1.549 17.404,-2.668 25.918,-4.756c26.502,-6.498 53.656,-14.124 81.134,-14.114c10.074,0.004 20.51,1.115 30.425,2.947c6.148,1.136 11.725,3.674 18.03,2.688l-0,-2.254c-11.184,-4.697 -21.148,-12.099 -33.806,-12.396l-0,-2.253c11.26,0.031 23.388,0.943 33.806,5.494c5.12,2.237 9.394,7.453 14.693,8.802c7.79,1.981 16.746,1.786 24.747,2.782c19.916,2.48 42.893,5.576 60.85,15.005c12.062,6.334 23.958,15.634 25.918,29.894c27.94,0.231 62.93,15.277 75.5,41.694c-13.084,0.873 -24.018,-14.841 -38.313,-11.269c29.356,12.666 50.989,42.477 63.273,70.993c3.249,7.54 11.584,16.425 9.973,24.791c-6.736,-4.746 -11.654,-10.919 -19.157,-14.65c2.4,7.732 6.631,14.884 9.355,22.538c7.141,20.065 13.383,41.11 17.69,61.977c-8.559,-5.345 -12.537,-16.658 -21.411,-21.41c1.714,5.796 1.181,12.022 0.954,18.029c-0.503,13.31 -1.794,28.236 -7.071,40.567c-3.816,8.916 -9.797,16.521 -12.561,25.918c-6.034,20.514 -9.062,41.815 -10.52,63.105c-1.331,19.44 -1.187,38.233 -5.353,57.469c-2.476,11.431 -5.893,22.893 -10.086,33.806c-1.732,4.509 -6.14,10.849 -5,15.776c1.017,4.395 4.592,8.451 6.681,12.396c3.713,7.011 6.78,14.491 12.727,20.03c4.295,4 10.376,5.438 15.58,7.895c11.606,5.477 23.135,10.789 34.933,15.853c8.819,3.784 19.759,11.979 29.298,12.565c8.07,9.061 20.408,13.647 28.821,22.639c25.346,27.089 44.114,58.78 61.676,91.174c8.078,14.899 18.066,29.41 24.582,45.074c5.038,12.112 -2.78,24.168 0.579,36.06c2.369,8.382 8.89,15.18 13.25,22.537c6.335,10.691 11.837,22.615 17.292,33.806c10.017,20.551 15.995,42.813 26.501,63.104c5.156,9.958 13.188,17.698 19.204,27.045c2.651,4.118 4.138,9.026 6.012,13.649l-0,17.664c-0.594,-4.59 -0.957,-9.259 -3.094,-13.183c-10.069,-18.493 -25.221,-33.863 -34.518,-53.063c-11.769,-24.308 -22.324,-49.091 -34.4,-73.246c-5.086,-10.172 -13.199,-19.839 -17.096,-30.425c-4.067,-11.049 1.469,-23.342 -2.148,-34.933c-4.715,-15.109 -12.967,-28.682 -19.931,-42.82c-14.038,-28.503 -29.398,-57.287 -50.863,-81.134c-7.47,-8.301 -16.071,-15.12 -24.598,-22.26c-8.344,-6.988 -16.168,-14.099 -25.918,-19.144c-22.299,-11.538 -49.149,-18.731 -67.612,-36.35c5.063,8.253 11.379,15.467 16.38,23.664c7.659,12.552 13.845,25.451 22.934,37.187c8.239,10.635 18.279,19.858 26.595,30.426c8.788,11.167 15.17,23.956 20.211,37.185c3.186,8.364 6.77,16.635 10.446,24.791c1.558,3.456 4.674,8.381 4.254,12.294c-0.441,4.104 -5.462,6.752 -8.417,8.974c-8.616,6.479 -16.932,12.945 -25.918,18.924c-35.399,23.554 -71.293,45.974 -105.925,70.722c-21.089,15.072 -40.252,32.601 -60.85,48.257c-14.08,10.7 -33.891,22.844 -41.879,39.157c-5.641,11.518 -6.368,26.86 -7.878,39.44c-3.194,26.611 -4.353,53.413 -7.713,80.007l-5.635,0c3.124,-24.723 4.008,-49.646 7.084,-74.373c1.816,-14.596 6.929,-29.33 7.566,-43.947c-12.359,12.358 -28.386,29.997 -30.137,48.455c-0.435,4.586 2.053,9.136 3.092,13.522c-10.589,-5.501 -9.879,-18.644 -5.937,-28.171c8.63,-20.863 22.529,-38.355 38.616,-54.073c22.702,-22.181 48.6,-41.046 74.373,-59.413c29.843,-21.267 60.143,-41.752 91.276,-61.106c16.892,-10.501 34.433,-20.414 50.708,-31.86c5.028,-3.536 14.58,-9.378 16.445,-15.541c1.421,-4.694 -2.902,-11.704 -4.901,-15.775c-5.788,-11.788 -9.981,-24.344 -15.836,-36.06c-11.701,-23.417 -33.58,-40.385 -48.282,-61.977c-13.293,-19.523 -25.625,-40.463 -35.433,-61.978c-2.983,-6.542 -3.31,-14.058 -6.649,-20.283c-1.342,13.102 -12.091,24.4 -20.471,33.806c-3.928,4.409 -8.744,8.828 -10.535,14.649c-2.116,6.883 0.231,14.454 0.537,21.41c0.588,13.448 -0.41,26.245 -2.898,39.441c-1.045,5.536 -1.711,12.247 -4.946,16.902c-1.585,-7.285 0.232,-15.181 0.935,-22.537c0.813,-8.495 -0.258,-16.376 -0.835,-24.791c-0.411,-6.015 0.042,-11.224 -2.354,-16.903c-2.18,7.538 -4.364,15.609 -10.259,21.174c-3.929,3.71 -11.376,5.011 -14.175,9.565c-2.994,4.871 -2.251,12.254 -3.36,17.716c-2.488,12.257 -7.801,24.786 -9.009,37.187c-0.554,5.665 1.869,11.506 3.296,16.903c2.688,10.163 5.082,20.42 8.344,30.425c1.714,5.259 6.36,12.634 4.88,18.03c-2.425,-5.104 -5.885,-9.58 -8.402,-14.649c-5.17,-10.411 -9.429,-21.519 -15.263,-31.553c-1.857,13.781 -8.121,26.467 -12.742,39.441c-9.297,26.097 -19.993,52.536 -31.465,77.753c-5.555,12.211 -10.895,24.45 -15.141,37.186c-1.947,5.844 -4.752,11.837 -3.756,18.03c7.779,-25.062 26.536,-47.349 43.757,-66.485c34.648,-38.497 75.654,-70.157 117.384,-100.462c12.702,-9.224 25.855,-18.099 38.314,-27.61c7.613,-5.812 14.263,-13.399 23.664,-16.166c-6.745,11.883 -20.812,19.029 -31.552,26.759c-20.478,14.737 -40.526,30.236 -60.851,45.23c-21.109,15.573 -40.542,32.773 -59.68,50.643c-20.618,19.255 -40.245,39.46 -55.6,63.3c-6.178,9.593 -10.258,20.304 -15.436,30.426c5.704,-5.266 8.889,-12.897 13.433,-19.157c9.746,-13.425 20.215,-26.318 31.686,-38.313c11.948,-12.494 25.518,-23.41 38.225,-35.108c28.641,-26.368 58.605,-50.741 90.193,-73.549c12.555,-9.065 25.613,-17.121 38.313,-25.93c7.097,-4.923 13.873,-11.167 21.411,-15.286c-0.263,8.006 -5.251,9.779 -11.269,14.017c-6.464,4.551 -12.507,9.502 -19.157,13.806c-30.595,19.807 -60.519,41.938 -87.895,66.029c-40.345,35.504 -81.19,70.95 -110.175,116.871c-8.802,13.945 -14.117,28.531 -19.659,43.948c-13.086,36.408 -20.469,71.77 -18.912,110.432l-66.484,0c2.37,-29.797 10.95,-59.559 15.866,-89.022c1.635,-9.795 6.078,-21.964 1.518,-31.552c-2.155,-4.531 -6.125,-8.256 -9.643,-11.742c-2.476,-2.451 -4.683,-4.665 -7.741,-6.288c-2.779,35.211 -7.252,71.377 -14.65,105.925c-1.619,7.561 -3.753,14.987 -5.397,22.537c-1.092,5.004 -1.404,9.173 -6.998,10.142c1.441,-16.531 7.164,-33.311 10.52,-49.582c3.359,-16.29 4.724,-33.152 7.419,-49.582c1.682,-10.253 3.42,-21.156 3.47,-31.552c0.019,-3.908 0.645,-8.645 -0.835,-12.351c-2.804,-7.017 -13.396,-14.732 -19.447,-19.201c0.382,3.84 1.78,7.436 2.136,11.269c1.108,11.911 -0.549,24.258 -1.962,36.059c-0.905,7.556 -1.56,16.712 -4.682,23.664c0,-14.347 0.765,-28.507 1.262,-42.82c0.194,-5.6 2.28,-12.6 0.527,-18.03c-2.051,-6.351 -8.486,-12.293 -13.062,-16.902c-13.061,-13.156 -31.936,-25.537 -49.577,-31.553c-0,14.987 1.026,30.167 2.445,45.074c0.8,8.407 3.151,20.208 -0.192,28.172c-0.011,-17.002 -4.445,-34.924 -6.761,-51.836c-0.889,-6.489 -0.269,-15.57 -4.212,-21.088c-10.995,-15.388 -34.627,-22.899 -51.004,-30.869c-22.13,-10.771 -42.897,-24.335 -65.358,-34.46c-15.823,-7.133 -31.986,-11.988 -48.455,-17.254c6.751,16.236 15.262,31.806 21.023,48.455c8.497,24.559 12.83,50.181 18.196,75.5c1.576,7.431 6.046,13.897 6.982,21.41l2.254,0c0.165,-19.888 9.175,-39.743 11.077,-59.724c0.798,-8.376 1.31,-17.519 1.31,-25.917c-0,-4.52 -1.649,-9.277 0.009,-13.523c3.085,10.974 6.072,23.478 5.59,34.933c-1.06,25.131 -11.792,48.576 -14.68,73.246c-0.505,4.308 1.611,8.19 2.121,12.395c1.002,8.266 0.002,16.751 -1.916,24.791c-2.906,12.184 -10.255,23.785 -12.155,36.06c-1.678,10.847 7.151,20.437 9.853,30.425c2.412,8.914 -1.577,16.103 -2.336,24.791l-7.888,0c0.066,-7.955 2.214,-15.776 0.082,-23.664c-5.667,-20.948 -22.296,-38.527 -35.142,-55.216c-8.839,-11.484 -15.635,-24.116 -23.755,-36.06c-10.683,-15.709 -25.289,-34.293 -25.699,-54.089c9.43,7.794 14.217,21.168 20.297,31.552c14.642,25.014 29.003,54.651 51.822,73.246c8.095,-14.6 15.647,-31.197 14.548,-48.455c-1.588,-24.917 -17.93,-43.835 -33.398,-61.977c-18.041,-21.159 -36.348,-42.108 -54.575,-63.105c-10.878,-12.53 -21.46,-26.421 -30.173,-40.567c-3.708,-6.018 -8.377,-14.241 -7.962,-21.41c6.184,5.037 9.771,12.551 14.092,19.157c6.557,10.025 13.896,19.567 20.885,29.298c15.863,22.084 36.158,42.594 55.155,61.976c7.831,7.989 14.624,18.277 23.681,24.792c-2.786,-8.232 -3.095,-17.359 -4.602,-25.917c-1.85,-10.515 -4.651,-21.264 -7.506,-31.553c-8.257,-29.754 -22.553,-58.599 -37.126,-85.641c-12.799,-23.75 -26.364,-47.513 -47.676,-64.831c-8.954,-7.276 -20.621,-14.685 -31.552,-18.468c-5.493,-1.901 -11.718,-1.292 -16.903,-3.469c3.867,-0.273 7.413,-0.55 11.269,-0l-6.761,-5.635c15.18,0.011 27.545,7.639 39.44,16.486c22.163,16.484 44.233,38.085 54.089,64.648c22.544,-37.211 21.12,-100.689 -27.044,-116.09c-5.637,-1.802 -12.04,-4.329 -18.03,-4.276c-5.205,0.045 -9.878,2.91 -14.649,4.643c-9.738,3.538 -19.636,5.756 -28.172,11.97c-6.166,4.489 -10.984,10.459 -18.03,13.604c-0.208,9.508 -10.936,18.243 -15.928,25.918c-10.139,15.587 -17.201,33.089 -22.928,50.709c-11.427,35.157 -14.947,70.527 -18.422,107.052c-0.871,9.148 -0.183,18.988 -0.183,28.171c0,4.155 1.394,8.485 -0.009,12.396l-4.507,-11.269l-2.254,0c-3,7.205 -6.573,13.444 -7.133,21.411c-0.779,11.08 2.408,22.438 1.308,33.806c-1.353,13.98 -7.913,26.601 -9.628,40.567c-1.525,12.415 -0.393,26.757 -5.957,38.313c-0,-2.476 -0.037,-4.975 -0.094,-7.49Z"/><path d="M722.412,523.607c-3.559,12.351 -12.727,21.882 -20.774,31.552c-3.679,4.42 -8.789,8.898 -10.294,14.649c-2.052,7.843 0.83,16.927 1.578,24.791c1.338,14.041 -1.742,28.068 -4.795,41.694c-1.274,5.687 -2.237,12.603 -6.282,16.903c1.54,-5.212 0.808,-10.415 1.318,-15.776c0.894,-9.396 2.433,-18.695 2.019,-28.172c-0.368,-8.354 -2.21,-16.354 -2.21,-24.791c-4.432,5.388 -5.264,12.637 -10.26,18.013c-3.899,4.195 -12.522,6.797 -14.994,11.725c-2.336,4.656 -1.856,11.395 -3.064,16.464c-2.066,8.659 -4.313,17.28 -6.472,25.917c-1.167,4.668 -3.163,9.793 -2.989,14.65c0.214,6.007 2.752,12.254 4.272,18.029c3.97,15.078 9.722,29.95 13.223,45.075c-9.862,-13.772 -17.243,-29.424 -23.664,-45.075c-2.638,4.855 -3.474,10.562 -5.29,15.776c-3.552,10.192 -7.417,20.292 -11.099,30.426c-7.458,20.53 -17.003,40.479 -24.921,60.85c-7.798,20.062 -21.13,40.061 -22.921,61.978c5.454,-8.108 8.803,-17.64 14.132,-25.918c10.348,-16.075 22.846,-30.908 35.642,-45.075c32.019,-35.45 71.803,-64.67 110.241,-92.574c21.046,-15.278 41.505,-31.616 63.104,-46.03c-2.811,7.889 -12.582,14.314 -19.157,19.185c-16.79,12.441 -33.867,24.478 -50.709,36.86c-39.809,29.265 -79.103,59.976 -111.881,97.208c-15.48,17.584 -32.493,37.853 -39.118,60.851c4.762,-4.396 7.83,-10.56 11.687,-15.776c8.071,-10.918 16.136,-21.715 25.543,-31.552c40.268,-42.111 85.636,-80.333 132.926,-114.295c13.318,-9.565 27.24,-18.098 40.567,-27.588c6.441,-4.587 13.645,-11.917 21.41,-13.624c-2.436,-7.631 -8.51,-13.155 -13.611,-19.14c-9.582,-11.241 -19.437,-21.896 -28.213,-33.823c-14.71,-19.991 -26.708,-42.059 -37.766,-64.231c-3.059,-6.135 -3.997,-13.215 -7.178,-19.156Z" style="fill:#fff;fill-rule:nonzero;"/><path d="M748.33,558.539l3.38,9.015l2.254,-1.127c1.983,4.457 5.169,8.124 7.537,12.396c6.601,11.919 12.458,24.298 21.159,34.933c10.884,13.306 23.371,25.185 33.063,39.44c13.015,19.144 20.761,42.889 29.517,64.231c3.461,-7.202 3.844,-16.914 5.168,-24.791c2.196,-13.063 5.155,-26.182 5.999,-39.44c0.337,-5.294 -0.916,-10.492 -1.025,-15.776l2.253,-0c0.234,11.292 3.779,22.43 3.336,33.806c-0.388,9.938 -2.752,19.503 -4.14,29.298c-3.465,24.436 -7.054,49.168 -12.591,73.246c-3.758,16.342 -8.389,32.531 -13.65,48.455c-3.027,9.163 -8.047,18.527 -9.014,28.172c13.244,-4.982 22.028,-15.238 30.915,-25.918c10.437,-12.541 20.315,-25.709 29.156,-39.44c5.551,-8.624 10.044,-22.742 18.809,-28.172c3.011,10.185 -3.134,18.611 -8.419,27.045c-5.072,8.094 -9.911,16.211 -15.935,23.664c-12.252,15.162 -26.102,29.05 -39.877,42.821c-6.265,6.261 -14.259,11.767 -19.208,19.156c-5.924,8.847 -10.912,19.032 -13.758,29.299c-1.757,6.339 -2.098,12.927 -4.22,19.156c14.724,6.23 26.224,-7.691 36.059,-16.801c12.49,-11.57 26.218,-21.87 38.313,-33.909c10.468,-10.416 20.123,-23.696 32.679,-31.551c-1.537,14.21 -18.531,25.296 -28.171,34.933c-16.789,16.784 -35.585,33.88 -55.216,47.296c-6.088,4.16 -12.521,7.803 -19.157,11.01c-3.169,1.53 -7.771,2.527 -10.041,5.373c-2.088,2.619 -2.225,6.423 -2.913,9.567c-1.469,6.706 -3.296,13.539 -4.478,20.284c-1.259,7.179 3.629,13.853 6.09,20.283c3.615,9.441 6.769,19.089 11.255,28.172c1.62,3.279 3.247,7.978 6.409,10.108c3.5,2.355 9.947,1.16 13.962,1.16c4.61,0 9.458,0.609 13.196,-2.614c5.857,-5.037 9.976,-12.644 14.558,-18.796c9.376,-12.595 19.769,-24.931 30.844,-36.06c5.919,-5.948 11.486,-12.127 19.155,-15.776c-5.828,12.458 -16.625,22.661 -25.821,32.679c-11.094,12.085 -22.527,26.222 -30.522,40.567l209.596,0c-0.126,-14.176 -9.899,-32.929 -18.626,-43.93c-2.62,-3.304 -6.336,-5.667 -8.725,-9.133c-5.176,-7.507 -2.875,-18.144 -7.246,-25.817c-10.647,-18.69 -25.839,-34.324 -34.92,-54.089c-11.115,-24.19 -21.985,-48.32 -33.882,-72.12c-5.075,-10.149 -13.157,-19.837 -17.025,-30.425c-2.452,-6.713 -0.331,-13.435 -0.167,-20.283c0.195,-8.05 -1.698,-15.054 -4.564,-22.538c-3.624,-9.465 -9.366,-17.894 -13.634,-27.044c-22.202,-47.62 -49.568,-92.003 -93.344,-122.781c-12.806,-9.002 -27.735,-13.868 -41.694,-20.621c-10.632,-5.145 -21.562,-13.07 -32.679,-16.613Z" style="fill:#fff;fill-rule:nonzero;"/><path d="M744.949,599.106c-6.647,10.093 -12.746,19.381 -17.769,30.426c-3.189,7.01 -5.899,13.753 -3.641,21.41c17.572,-8.501 24.791,-29.294 24.791,-47.328c-2.774,5.156 -0.753,11.312 -3.43,16.859c-4.225,8.75 -12.377,14.388 -15.727,23.708c-0.598,-6.641 3.461,-12.574 3.381,-19.157c3.34,-2.332 4.122,-5.489 6.026,-9.016c3.026,-5.603 6.693,-10.789 8.623,-16.902l-2.254,0Z" style="fill-rule:nonzero;"/><path d="M855.382,638.547c3.944,25.505 -4.629,52.555 -8.537,77.753c-3.216,20.74 -6.508,41.676 -11.921,61.977c-6.243,23.41 -15.556,45.86 -23.401,68.739c-12.466,36.355 -24.767,72.59 -36.178,109.306c-3.739,12.033 -7.304,24.254 -11.717,36.059c-3.778,10.108 -8.718,20.712 -9.664,31.552c2.735,-0.011 6.156,0.406 8.571,-1.16c3.207,-2.085 3.962,-6.773 5.208,-10.108c2.89,-7.731 6.419,-15.45 7.632,-23.665c5.548,6.08 9.497,12.79 12.862,20.284c1.726,3.843 3.603,10.919 7.082,13.489c3.081,2.287 9.107,1.16 12.735,1.16c-0.785,-6.22 -4.977,-12.316 -7.607,-18.03c-3.711,-8.057 -5.897,-16.757 -9.578,-24.791c-1.803,-3.933 -5.473,-9.143 -5.666,-13.522c-0.155,-3.54 1.895,-7.83 2.724,-11.268c1.59,-6.606 1.099,-17.101 5.822,-22.413c2.715,-3.055 8.423,-4.196 12.051,-6.009c7.513,-3.757 14.516,-8.109 21.41,-12.928c13.867,-9.694 26.803,-21.854 39.44,-33.117c10.875,-9.691 21.517,-19.712 31.521,-30.332c2.4,-2.547 10.714,-9.91 4.539,-11.268c1.336,-1.337 1.722,-1.785 2.254,-3.381c-8.385,4.35 -14.493,12.655 -20.863,19.495c-6.919,7.43 -14.521,14.08 -21.958,20.972c-7.643,7.082 -15.625,13.956 -23.647,20.603c-7.506,6.22 -14.146,13.998 -22.554,19.015c-3.091,1.845 -7.487,4.206 -11.226,3.254c-5.287,-1.345 -4.285,-8.199 -3.761,-12.347c1.437,-11.393 6.83,-23.001 12.806,-32.679c7.09,-11.484 17.506,-18.816 26.971,-28.176c15.753,-15.575 31.286,-32.425 43.813,-50.704c7.774,-11.343 18.556,-25.145 15.911,-39.44c-8.319,4.35 -13.393,19.157 -18.389,27.045c-11.002,17.365 -23.43,34.986 -37.955,49.582c-7.372,7.408 -13.326,14.132 -23.663,16.903c6.829,-20.187 14.566,-40.129 19.748,-60.851c7.779,-31.108 12.346,-63.064 17.529,-94.656c2.303,-14.041 3.438,-28.698 1.126,-42.821c-0.697,-4.263 -0.152,-10.623 -3.47,-13.522Z" style="fill-rule:nonzero;"/><path d="M809.18,661.084c-3.881,8.145 -13.418,11.84 -20.283,17.225c-19.511,15.303 -40.96,28.179 -60.851,43.034c-25.747,19.226 -49.735,40.605 -73.246,62.468c-32.236,29.976 -64.276,61.547 -84.21,101.518c-5.957,11.944 -10.296,25.548 -14.142,38.314c-7.379,24.488 -15.46,49.67 -15.461,75.499c0,5.623 -0.16,11.28 0.017,16.903c0.071,2.243 0.012,5.161 1.946,6.728c2.508,2.028 7.446,1.16 10.433,1.16l27.044,0c0.096,-11.595 2.087,-23.393 3.19,-34.933c1.143,-11.97 1.221,-24.146 2.927,-36.059c2.274,-15.875 6.483,-31.456 8.533,-47.328c-12.098,8.904 -21.918,24.323 -26.815,38.313c-1.411,4.033 -3.547,7.991 -3.296,12.396c0.271,4.76 3.089,9.43 5.32,13.522c-15.154,-10.771 -11.969,-23.735 -4.783,-38.313c11.562,-23.456 30.832,-41.268 49.857,-58.597c45.675,-41.604 99.221,-74.653 151,-107.976c14.507,-9.336 29.286,-18.372 43.947,-27.464c7.239,-4.488 18.155,-10.436 22.54,-18.005c2.633,-4.543 -1.16,-11.293 -3.057,-15.584c-4.003,-9.055 -8.364,-17.977 -12.373,-27.045c-2.5,-5.651 -3.622,-11.427 -8.237,-15.776Z" style="fill:#fff;fill-rule:nonzero;"/><path d="M800.165,712.919c4.013,-0.646 7.315,-5.427 10.963,-5.402c5.698,0.04 -3.182,7.057 -4.201,7.656c7.445,3.124 18.542,-1.719 13.319,-11.147c-3.698,-6.675 -14.931,-7.552 -19.227,-1.126c-2.064,3.087 -1.256,6.588 -0.854,10.019Z" style="fill-rule:nonzero;"/><path d="M587.189,1023.93l152.126,0c3.586,0 9.679,1.127 12.731,-1.16c4.358,-3.268 5.672,-14.143 7.493,-19.123c6.781,-18.575 12.314,-37.517 18.308,-56.343c13.852,-43.502 29.136,-86.437 44.116,-129.589c10.435,-30.057 22.613,-63.603 23.277,-95.784c-8.089,3.42 -14.498,9.919 -21.41,15.185c-7.046,5.368 -15.015,10.075 -22.538,14.762c-46.832,29.173 -91.741,60.725 -135.223,94.657c-13.687,10.681 -27.14,21.673 -40.567,32.679c-8.151,6.681 -17.63,13.578 -22.763,23.015c-5.651,10.391 -6.316,24.499 -7.968,36.06c-2.356,16.489 -2.819,33.049 -4.393,49.582c-1.147,12.046 -3.188,23.934 -3.189,36.059Z" style="fill:#fff;fill-rule:nonzero;"/><path d="M678.464,764.755c-0.081,8.411 5.737,16.566 7.54,24.79c0.466,2.126 0.99,7.558 4.563,6.202c3.582,-1.358 1.96,-7.006 1.172,-9.582c-2.434,-7.956 -6.831,-16.088 -13.275,-21.41Z" style="fill-rule:nonzero;"/><path d="M615.36,919.135c3.691,2.81 8.913,3.134 13.523,3.337c10.157,0.444 20.382,-0.818 30.425,-2.21c32.492,-4.502 65.285,-12.243 96.91,-20.933c13.423,-3.688 30.166,-7.286 39.44,-18.507c-6.197,-0.046 -11.256,4.106 -16.903,6.37c-9.85,3.95 -20.136,6.973 -30.425,9.549c-43.3,10.838 -88.102,22.27 -132.97,22.394Z" style="fill-rule:nonzero;"/><path d="M836.225,1023.93c11.816,-0.135 15.918,-10.626 22.266,-19.156c13.618,-18.307 31.243,-33.375 43.092,-52.963c-9.046,1.756 -15.346,10.607 -21.511,16.947c-15.627,16.069 -33.589,35.08 -43.847,55.172Z" style="fill-rule:nonzero;"/><path d="M950.038,974.351c5.907,1.811 13.029,-1.693 19.157,-2.018c14.282,-0.756 30.777,3.505 39.44,15.541c3.703,-8.847 -4.491,-15.159 -12.396,-17.232c-15.438,-4.051 -31.552,-1.934 -46.201,3.709Z" style="fill-rule:nonzero;"/><path d="M902.71,1011.54c8.477,3.042 21.826,-3.877 30.425,-5.635c16.216,-3.301 32.924,-7.797 49.582,-7.797c5.623,-0 11.336,1.464 16.903,2.163c-6.704,-7.799 -16.506,-6.764 -25.918,-6.761c-24.148,0.009 -48.441,10.401 -70.992,18.03Z" style="fill-rule:nonzero;"/><path d="M681.927,176.533c-7.793,11.817 -13.454,24.121 -22.862,34.933c-15.863,18.229 -39.127,32.2 -60.525,42.821c3.985,-5.165 9.861,-8.208 13.763,-13.527c12.577,-17.137 19.164,-36.829 23.423,-57.465c-12.63,7.9 -21.348,20.566 -32.679,30.059c-16.608,13.914 -35.307,25.736 -54.089,36.425l-1.127,-1.127c2.928,-5.877 7.557,-10.338 11.151,-15.776c6.091,-9.215 10.896,-20.605 12.513,-31.552c-7.708,7.127 -14.497,15.258 -22.537,22.043c-20.413,17.224 -43.086,32.026 -65.358,46.696c-1.064,-7.054 2.418,-12.846 5.156,-19.157c4.041,-9.317 7.608,-18.174 9.493,-28.171c-9.303,7.116 -15.856,17.818 -24.791,25.592c-5.864,5.101 -11.915,10.16 -18.03,14.958c-4.442,3.486 -8.791,6.087 -11.268,11.285l5.634,-3.38c-2.942,8.696 -6.715,17.107 -9.329,25.918c-2.868,9.661 -4.561,19.125 -8.335,28.493c-2.434,6.04 -1.114,12.941 -6,17.708c0.488,-6.133 2.141,-12.023 3.38,-18.03c-5.714,4.345 -5.301,16.969 -5.673,23.664c-1.194,21.412 -2.504,42.786 -3.341,64.231c-10.572,-5.943 -11.908,-16.294 -15.836,-27.044c-5.307,-14.522 -10.566,-26.847 -22.478,-37.114c-4.444,-3.83 -9.524,-6.88 -14.649,-9.72c-14.125,-7.828 -28.862,-0.328 -36.59,13.028c-8.482,14.661 -8.934,38.007 -5.231,54.089c6.565,28.512 29.386,57.783 56.47,69.46c5.987,2.581 12.729,2.894 19.157,2.615c3.557,-0.154 7.727,-1.621 10.841,0.741c4.094,3.104 6.284,9.47 8.434,13.952c4.961,10.345 12.502,22.565 14.531,33.806c-5.649,-6.486 -12.025,-13.131 -16.785,-20.283c-4.469,-6.716 -7.323,-14.449 -11.387,-21.411l-14.649,0c0,11.079 -1.703,24.21 1.432,34.933c5.032,17.21 19.121,31.251 31.146,43.931c27.01,28.482 55.424,56.234 92.504,71.009c18.434,7.346 36.631,11.377 56.343,12.492c11.852,0.671 24.883,-2.027 29.298,-14.746c-8.785,-2.603 -18.142,-2.834 -27.045,-5.667c-38.508,-12.251 -76.394,-32.094 -105.925,-59.59c-6.497,-6.049 -13.52,-11.197 -19.156,-18.13c13.985,5.292 26.628,15.531 39.44,23.153c27.429,16.318 56.3,31.922 86.768,41.647c15.648,4.994 31.86,9.154 48.455,6.993c10.931,-1.424 20.036,-5.453 29.399,-10.809c2.188,-1.252 4.973,-1.688 6.883,-3.377c5.465,-4.833 10.279,-13.267 14.455,-19.294c7.181,-10.364 14.829,-20.342 22.391,-30.425c23.709,-31.612 40.401,-66.453 45.997,-105.925c2.546,-17.947 0.459,-36.238 3.241,-54.09c2.881,-18.478 6.316,-36.886 9.983,-55.216c2.158,-10.785 5.851,-20.389 6.207,-31.552c0.502,-15.749 -4.361,-32.119 -7.84,-47.328c-3.11,7.412 0.705,15.884 -1.127,23.664c-6.289,-10.256 -6.381,-24.573 -9.827,-36.06c-8.4,-27.997 -23.065,-56.443 -47.642,-73.246c-0.515,24.948 -14.318,51.361 -31.553,68.739c3.049,-7.354 7.758,-13.972 10.759,-21.411c3.584,-8.883 5.312,-19.813 6.331,-29.298c0.696,-6.467 2.205,-13.285 -1.314,-19.157Z" style="fill:#fff;fill-rule:nonzero;stroke:#000;stroke-width:6px;"/><path d="M476.756,328.66c10.283,-0.562 21.506,-6.89 31.552,-9.704c20.75,-5.812 46.132,-9.278 67.612,-7.638c7.153,0.547 14.229,0.053 21.41,0.47c3.538,0.205 5.888,1.709 6.762,-2.285l4.507,2.254c-4.563,-17.974 -25.281,-21.051 -40.567,-21.428c-4.152,-0.101 -8.24,-1.175 -12.395,-0.992c-14.816,0.651 -29.515,4.464 -43.948,7.533c-8.37,1.78 -19.973,3.628 -26.313,9.984c-4.662,4.673 -7.663,15.421 -8.62,21.806Z" style="fill-rule:nonzero;"/><path d="M675.084,315.137c11.663,2.777 24.182,1.205 36.059,3.703c12.254,2.578 23.126,8.284 34.933,12.073c-1.067,-9.131 1.822,-16.919 -6.005,-24.351c-4.317,-4.099 -10.898,-5.904 -16.532,-7.319c-17.033,-4.279 -41.64,-4.155 -48.455,15.894Z" style="fill-rule:nonzero;"/><path d="M663.815,343.309c-2.507,9.378 -5.983,18.409 -6.761,28.171c4.055,-6.133 9.52,-21.1 6.761,-28.171Z" style="fill:#000001;fill-rule:nonzero;"/><path d="M339.362,383.876c5.443,-7.27 6.891,-18.199 15.776,-22.862c6.752,-3.544 18.221,13.544 17.312,19.481c-0.772,5.033 -6.319,10.016 -8.54,14.649c-5.311,11.084 -6.732,25.537 -2.729,37.187c3.145,9.156 12.572,15.794 22.128,16.703c5.268,0.501 11.554,-1.022 13.44,-6.61c2.84,-8.41 -7.195,-13.716 -8.264,-21.362c-1.121,-8.004 4.79,-16.559 4.966,-24.791c-6.42,-2.287 -8.583,-7.783 -11.559,-13.522c-3.901,-7.517 -8.469,-15.92 -13.828,-22.492c-6.521,-7.999 -15.398,-8.645 -21.536,-0c-1.974,2.78 -3.607,5.791 -4.835,8.97c-1.88,4.861 -2.317,9.49 -2.331,14.649Z" style="fill-rule:nonzero;"/><path d="M486.898,373.734c14.211,-5.828 29.551,-11.719 45.074,-12.395c-1.31,10.421 -0.164,22.691 11.27,26.894c2.715,0.998 5.808,1.541 8.536,0.306c10.203,-4.619 12.791,-18.382 12.873,-28.327l15.776,4.507c-4.819,-8.866 -15.303,-11.15 -24.79,-11.264c-16.512,-0.197 -31.537,1.308 -47.329,6.369c-7.861,2.52 -18.815,5.087 -21.41,13.91Z" style="fill-rule:nonzero;"/><path d="M676.211,366.973c3.52,-0.351 6.729,-1.35 10.141,-2.254c-0.919,4.022 -2.698,8.251 -1.502,12.395c2.061,7.131 12.436,13.932 19.426,9.302c7.149,-4.736 7.93,-15.08 7.994,-22.824c8.26,3.44 15.39,9.26 23.664,12.396c-4.088,-22.568 -48.706,-29.443 -59.723,-9.015Z" style="fill-rule:nonzero;"/><path d="M660.435,361.339l1.127,1.126l-1.127,-1.126Z" style="fill:#2c2c2a;fill-rule:nonzero;"/><path d="M655.927,371.48l0,2.254c1.843,-0.614 1.64,-0.411 2.254,-2.254l-2.254,0Z" style="fill:#1a1e1e;fill-rule:nonzero;"/><path d="M368.578,388.383c-10.848,14.227 -19.786,46.631 3.38,55.507c2.825,1.082 6.049,0.827 9.015,0.836c-0.231,-5.057 -1.242,-10.213 -3.825,-14.649c-1.86,-3.196 -5.779,-6.255 -6.049,-10.142c-0.299,-4.313 3.825,-8.493 5.217,-12.395c2.723,-7.638 -1.826,-14.591 -7.738,-19.157Z" style="fill:#fff;fill-rule:nonzero;"/><path d="M620.995,476.279l5.634,1.126c2.601,-4.525 7.614,-5.405 6.761,-11.268c-5.498,1.869 -9.083,5.452 -12.395,10.142Z" style="fill-rule:nonzero;"/><path d="M547.749,521.353c4.614,8.369 24.1,6.073 32.678,6.661c27.184,1.86 55.249,1.055 82.261,-2.362c6.594,-0.834 11.621,-5.989 18.03,-6.553c0,-2.025 -0.016,-1.715 -1.127,-3.38c-8.385,1.729 -16.436,4.708 -24.791,6.439c-14.994,3.107 -32.032,4.328 -47.328,3.658c-14.602,-0.64 -29.358,-2.345 -43.947,-3.438c-5.574,-0.418 -10.229,-2.55 -15.776,-1.025Z" style="fill-rule:nonzero;"/><g><g><path d="M199.548,547.271c6.434,5.311 15.782,7.458 23.664,9.826c10.387,3.119 21.179,6.86 30.426,12.656c15.526,9.731 19.396,25.896 30.017,39.302c4.938,6.235 12.497,11.031 18.336,16.447c13.545,12.56 30.253,28.889 36.161,46.85c-9.314,-3.904 -16.321,-11.18 -23.664,-17.932c-14.968,-13.766 -26.832,-26.958 -37.924,-44.045c-5.86,-9.026 -10.077,-19.723 -17.659,-27.519c-10.373,-10.665 -23.344,-13.369 -36.819,-18.165c-15.373,-5.471 -32.117,-11.348 -46.1,-19.87c-7.485,-4.56 -14.643,-12.428 -18.821,-20.087c-2.932,-5.377 -4.423,-13.216 -9.452,-16.903c0.782,14.946 -4.021,30.583 -7.239,45.074c-1.301,5.851 -5.072,14.258 -0.809,19.683c4.279,5.446 14.342,4.237 20.443,6.571c15.591,5.964 31.58,14.26 43.947,25.687c5.317,4.914 10.627,10.577 12.029,17.925c4.615,24.185 2.068,47.736 -5.558,70.992c-2.13,6.492 -5.12,12.666 -7.191,19.155c-0.821,2.571 -1.861,5.688 0.29,7.895c2.286,2.347 6.452,3.116 9.446,4.127c5.665,1.914 11.289,4.009 16.903,6.069c18.605,6.828 37.153,14.68 55.216,22.822c43.749,19.723 85.462,43.797 126.208,69.043c27.856,17.259 57.909,37.277 76.627,64.709c1.39,-6.718 -4.785,-16.492 -7.641,-22.537c-10.201,-21.593 -25.826,-40.286 -43.546,-56.056c-8.36,-7.441 -16.438,-15.273 -25.44,-21.969c-13.674,-10.171 -28.524,-18.35 -42.82,-27.553c-21.259,-13.686 -42.72,-27.063 -65.358,-38.382c-18.573,-9.287 -36.724,-19.324 -55.217,-28.725c-10.274,-5.223 -22.586,-8.954 -30.425,-17.755c8.839,1.305 16.72,5.577 24.791,9.172c16.062,7.153 31.787,14.961 47.328,23.171c44.847,23.693 89.768,48.823 130.716,78.941c11.889,8.745 20.702,21.137 32.679,29.574c-12.553,-26.856 -30.762,-55.734 -51.835,-76.622c-12.194,-12.087 -24.457,-24.231 -35.734,-37.191c-4.182,-4.807 -10.901,-10.808 -12.722,-16.903c7.12,7.965 16.809,14.379 24.791,21.602c12.044,10.897 23.969,24.083 33.806,36.995c0.847,-5.177 -3.916,-10.976 -5.858,-15.776c-5.14,-12.697 -10.035,-25.469 -14.785,-38.314c-11.916,-32.231 -22.856,-64.978 -38.258,-95.783c-10.501,-21.001 -25.19,-39.716 -35.463,-60.85c-8.473,-17.432 -15.065,-46.376 7.596,-55.637c3.249,-1.329 6.643,-2.384 10.142,-2.764c5.306,-0.577 10.562,-0.037 15.776,0.931c-2.572,-2.958 -7.43,-3.017 -11.269,-3.281c-10.742,-0.735 -22.492,1.428 -32.679,4.808c-24.925,8.267 -42.826,23.944 -63.104,39.929c-13.891,10.949 -28.939,21.317 -43.948,30.663Z" style="fill:#fff;fill-rule:nonzero;"/><path d="M29.392,839.128l-6.761,-11.269c-13.108,16.859 -4.518,38.049 -6.937,57.47c-1.487,11.945 -6.872,22.98 -8.736,34.933c-5.392,34.599 -6.864,68.674 -6.864,103.671l247.909,0c1.161,-6.254 2.697,-13.973 1.714,-20.283c-1.156,-7.423 -5.055,-13.835 -8.631,-20.284c-7.26,-13.087 -15.649,-24.217 -24.769,-36.059c-9.749,-12.662 -17.863,-26.075 -26.567,-39.441c-11.575,-17.776 -21.274,-33.379 -26.261,-54.089c9.257,8.097 14.771,20.912 20.628,31.552c8.654,15.722 18.218,31.426 28.381,46.202c6.259,9.098 14.161,23.9 25.364,27.044c9.604,-18.257 16.359,-40.097 11.22,-60.85c-3.845,-15.523 -14.713,-28.339 -24.265,-40.567c-19.533,-25.006 -41.678,-48.014 -62.308,-72.119c-10.528,-12.304 -20.304,-25.815 -29.053,-39.441c-4.091,-6.37 -8.962,-14.812 -8.281,-22.537c13.679,19.028 25.746,39.514 40.901,57.47c13.843,16.402 28.146,32.66 42.678,48.438c9.384,10.19 19.599,19.321 27.981,30.442c1.333,-4.337 -0.483,-9.053 -0.937,-13.522c-1.18,-11.608 -4.168,-22.448 -6.718,-33.806c-7.704,-34.308 -23.829,-67.303 -40.452,-98.037c-9.88,-18.265 -19.613,-35.631 -34.142,-50.708c-14.199,-14.735 -39.512,-36.902 -61.99,-31.553c3.554,-3.326 6.642,-3.314 11.269,-2.253c-2.611,-3.711 -6.954,-3.95 -11.269,-4.508c14.937,-4.415 30.044,4.283 41.694,12.934c12.799,9.504 25.376,19.751 35.536,32.141c8.563,10.44 14.92,22.344 21.934,33.806c7.836,-8.384 9.985,-22.814 11.574,-33.806c2.833,-19.607 3.265,-43.789 -8.912,-60.851c-4.459,-6.246 -10.905,-10.675 -17.311,-14.701c-5.107,-3.21 -9.979,-4.8 -15.776,-6.292c-5.022,-1.292 -10.514,-3.792 -15.776,-3.483c-5.408,0.316 -10.693,3.795 -15.776,5.507c-16.006,5.389 -29.543,11.083 -41.297,23.91c-4.676,5.104 -8.122,12.038 -12.398,17.596c-14.408,18.732 -22.917,40.742 -29.909,63.105c-14.752,47.189 -17.088,95.179 -16.687,144.238Z" style="fill:#fff;fill-rule:nonzero;"/><path d="M474.503,885.329c-0.181,8.722 -2.361,17.252 -3.19,25.918c-2.257,23.616 -4.318,47.631 -8.99,70.992c-2.738,13.696 -8.622,27.721 -9.231,41.694c4.837,0 16.695,2.175 20.126,-1.803c2.26,-2.625 2.33,-7.336 2.878,-10.592c1.39,-8.271 2.875,-16.528 4.323,-24.791c2.963,-16.917 6.258,-33.827 9.421,-50.709c3.193,-17.035 7.244,-30.409 -6.327,-43.942c-2.825,-2.818 -5.414,-5.089 -9.01,-6.767Z" style="fill:#fff;fill-rule:nonzero;"/><path d="M263.779,896.598c7.581,6.458 18.908,10.001 28.172,13.466c26.727,9.996 53.408,12.809 81.134,18.311c15.118,3 31.071,9.687 46.201,4.282c-8.695,-4.63 -20.795,-4.456 -30.425,-5.944c-19.134,-2.953 -38.507,-6.247 -57.47,-10.154c-22.884,-4.714 -44.352,-17.933 -67.612,-19.961Z" style="fill-rule:nonzero;"/></g><path d="M210.817,742.218c4.338,15.176 13.101,29.158 18.678,43.947c9.18,24.345 13.568,50.149 18.829,75.5c1.757,8.464 6.51,16.316 7.567,24.791c4.091,-6.817 4.844,-17.03 6.627,-24.791c3.957,-17.204 6.48,-34.193 6.913,-51.835c0.232,-9.504 0.679,-16.631 -2.271,-25.918c4.831,4.822 5.959,11.482 7.038,18.029c2.234,13.536 2.082,25.95 -0.499,39.441c-3.395,17.751 -10.329,36.162 -11.948,54.089c-0.438,4.851 1.979,8.88 2.785,13.522c0.972,5.602 -0.021,11.387 -1.051,16.903c-2.802,15.018 -12.182,28.961 -13.999,43.948c-1.244,10.261 7.244,19.829 10.028,29.298c2.455,8.35 -0.485,16.633 -2.496,24.791l152.127,0c3.275,0 8.867,0.992 11.282,-1.803c3.595,-4.18 3.355,-14.311 4.64,-19.607c3.017,-12.438 6.356,-24.773 9.46,-37.187c2.085,-8.337 2.919,-16.792 8.423,-23.664c2.026,8.536 -0.615,16.454 -2.487,24.791c-4.223,18.814 -12.444,38.077 -13.289,57.47c4.774,0 15.748,2.04 19.227,-1.803c2.292,-2.546 2.442,-7.392 3.176,-10.592c2.068,-8.993 4.156,-18.004 5.993,-27.045c5.057,-24.889 8.529,-50.266 11.232,-75.5c0.869,-8.124 4.304,-20.312 1.387,-28.167c-2.542,-6.842 -13.23,-15.066 -19.604,-18.034c1.076,6.359 3.179,12.614 3.179,19.157c-0,18.228 -6.409,36.078 -6.56,54.089l-2.254,0c0,-16.238 2.247,-32.272 2.254,-48.455c0.002,-4.849 1.729,-11.14 0.447,-15.776c-1.763,-6.386 -8.255,-12.911 -12.842,-17.451c-13.557,-13.417 -31.383,-22.847 -48.455,-31.004c-0,24.487 2.331,48.819 3.38,73.246l-2.254,-0c-1.195,-15.145 -4.93,-30.02 -6.565,-45.075c-0.955,-8.793 -0.117,-21.749 -5.339,-29.281c-4.713,-6.801 -13.563,-11.327 -20.775,-14.945c-9.367,-4.699 -18.713,-9.448 -28.171,-13.961c-36.783,-17.552 -72.519,-45.042 -113.813,-51.118Z" style="fill:#fff;fill-rule:nonzero;"/></g></svg>